
<svg xmlns="http://www.w3.org/2000/svg" version="1.1" xmlns:xlink="http://www.w3.org/1999/xlink" preserveAspectRatio="none" x="0px" y="0px" width="36px" height="36px" viewBox="0 0 36 36">
<defs>
<g id="soup_0_Layer0_0_MEMBER_0_FILL">
<path fill="#E6892E" stroke="none" d="
M 4.7 26.3
Q 9.35 31 16 31 22.6 31 27.3 26.3 32 21.65 32 15
L 0 15
Q 0 21.65 4.7 26.3 Z"/>
</g>

<g id="soup_0_Layer0_0_MEMBER_1_FILL">
<path fill="#FFA159" stroke="none" d="
M 32.05 15
Q 32.05 11.35 27.35 8.7 22.65 6.1 16 6.1 9.35 6.1 4.65 8.7 -0.05 11.3 -0.05 15 -0.05 18.7 4.65 21.35 9.35 23.95 16 23.95 22.65 23.95 27.35 21.35 32.05 18.7 32.05 15 Z"/>
</g>

<g id="soup_0_Layer0_0_MEMBER_2_FILL">
<path fill="#EA9C00" stroke="none" d="
M 16 11.9
Q 9.95 11.9 5.65 14.15 1.35 16.4 1.35 19.6 1.35 22.8 5.65 25.1 9.9 27.35 16 27.35 22.05 27.35 26.3 25.1 30.6 22.8 30.6 19.6 30.6 16.4 26.3 14.15 22.05 11.9 16 11.9 Z"/>
</g>

<g id="soup_0_Layer0_0_MEMBER_3_FILL">
<path fill="#196D80" stroke="none" d="
M 14.9 19.35
Q 14.95 19.35 15.05 19.3 15.15 19.3 15.25 19.3 15.5 19.3 15.65 19.45 15.75 19.6 15.85 19.85
L 16 20.35 14.6 23.6 15.15 23.6 15.9 21.85
Q 16 21.6 16.1 21.35 16.2 21.1 16.25 20.9 16.3 21 16.35 21.2 16.4 21.35 16.45 21.55 16.55 21.75 16.55 21.9
L 17.05 23.15
Q 17.15 23.4 17.25 23.55 17.4 23.65 17.6 23.65 17.75 23.65 17.8 23.6 17.9 23.6 17.95 23.55
L 17.95 23.2 17.9 23.2
Q 17.85 23.2 17.8 23.2 17.6 23.2 17.5 22.85
L 16.4 19.9
Q 16.3 19.55 16.15 19.3 16 19.05 15.8 18.95 15.65 18.85 15.3 18.85 15.2 18.85 15.1 18.85 15 18.85 14.9 18.9
L 14.9 19.35 Z"/>
</g>

<g id="soup_0_Layer0_0_MEMBER_4_MEMBER_0_FILL">
<path fill="#FFC733" stroke="none" d="
M 45.2 19.4
Q 45.0513671875 19.648828125 45.05 19.95
L 45.05 21.05
Q 45.053515625 21.4607421875 45.35 21.75 45.6392578125 22.046484375 46.05 22.05 46.375 22.052734375 46.7 21.95
L 46.65 21.95
Q 46.8 21.947265625 46.95 21.95 47.080078125 21.95 47.15 21.95 47.36484375 22.2509765625 47.55 22.75
L 47.55 22.8 47.85 23.6 44.3 31.65
Q 44.1884765625 31.9666015625 44.25 32.3 44.35625 32.63515625 44.6 32.85 44.903125 33.055859375 45.25 33.05
L 46.7 33.05
Q 46.9986328125 33.04453125 47.25 32.85 47.5025390625 32.7171875 47.6 32.45
L 49.5 28.1 50.65 31.25 50.65 31.2
Q 51.0037109375 32.1958984375 51.45 32.6 51.4744140625 32.6244140625 51.5 32.65 52.0828125 33.1953125 53.1 33.2 53.549609375 33.20234375 53.85 33.1
L 53.8 33.1
Q 54.2728515625 33.0287109375 54.55 32.8 54.7578125 32.6896484375 54.85 32.45 54.996484375 32.2521484375 55 32
L 55 31
Q 54.996484375 30.5892578125 54.7 30.3 54.4107421875 30.003515625 54 30 53.8935546875 29.979296875 53.65 30.05 53.590234375 30.05 53.55 30.05 53.7560546875 30.0400390625 53.7 29.85
L 50.95 22.15 50.95 22.15
Q 50.563671875 21.1064453125 50.15 20.45 49.6544921875 19.5603515625 48.9 19.2 48.2189453125 18.803515625 47.1 18.8 46.8443359375 18.803515625 46.55 18.85 46.1123046875 18.8490234375 45.65 19 45.3939453125 19.1427734375 45.2 19.4 Z"/>
</g>

<g id="soup_0_Layer0_0_MEMBER_4_MEMBER_1_FILL">
<path fill="#FFC733" stroke="none" d="
M 45.2 19.4
Q 45.0513671875 19.648828125 45.05 19.95
L 45.05 21.05
Q 45.053515625 21.4607421875 45.35 21.75 45.6392578125 22.046484375 46.05 22.05 46.375 22.052734375 46.7 21.95
L 46.65 21.95
Q 46.8 21.947265625 46.95 21.95 47.080078125 21.95 47.15 21.95 47.36484375 22.2509765625 47.55 22.75
L 47.55 22.8 47.85 23.6 44.3 31.65
Q 44.1884765625 31.9666015625 44.25 32.3 44.35625 32.63515625 44.6 32.85 44.903125 33.055859375 45.25 33.05
L 46.7 33.05
Q 46.9986328125 33.04453125 47.25 32.85 47.5025390625 32.7171875 47.6 32.45
L 49.5 28.1 50.65 31.25 50.65 31.2
Q 51.0037109375 32.1958984375 51.45 32.6 51.4744140625 32.6244140625 51.5 32.65 52.0828125 33.1953125 53.1 33.2 53.549609375 33.20234375 53.85 33.1
L 53.8 33.1
Q 54.2728515625 33.0287109375 54.55 32.8 54.7578125 32.6896484375 54.85 32.45 54.996484375 32.2521484375 55 32
L 55 31
Q 54.996484375 30.5892578125 54.7 30.3 54.4107421875 30.003515625 54 30 53.8935546875 29.979296875 53.65 30.05 53.590234375 30.05 53.55 30.05 53.7560546875 30.0400390625 53.7 29.85
L 50.95 22.15 50.95 22.15
Q 50.563671875 21.1064453125 50.15 20.45 49.6544921875 19.5603515625 48.9 19.2 48.2189453125 18.803515625 47.1 18.8 46.8443359375 18.803515625 46.55 18.85 46.1123046875 18.8490234375 45.65 19 45.3939453125 19.1427734375 45.2 19.4 Z"/>
</g>

<g id="soup_0_Layer0_0_MEMBER_4_MEMBER_2_FILL">
<path fill="#FFC733" stroke="none" d="
M 45.2 19.4
Q 45.0513671875 19.648828125 45.05 19.95
L 45.05 21.05
Q 45.053515625 21.4607421875 45.35 21.75 45.6392578125 22.046484375 46.05 22.05 46.375 22.052734375 46.7 21.95
L 46.65 21.95
Q 46.8 21.947265625 46.95 21.95 47.080078125 21.95 47.15 21.95 47.36484375 22.2509765625 47.55 22.75
L 47.55 22.8 47.85 23.6 44.3 31.65
Q 44.1884765625 31.9666015625 44.25 32.3 44.35625 32.63515625 44.6 32.85 44.903125 33.055859375 45.25 33.05
L 46.7 33.05
Q 46.9986328125 33.04453125 47.25 32.85 47.5025390625 32.7171875 47.6 32.45
L 49.5 28.1 50.65 31.25 50.65 31.2
Q 51.0037109375 32.1958984375 51.45 32.6 51.4744140625 32.6244140625 51.5 32.65 52.0828125 33.1953125 53.1 33.2 53.549609375 33.20234375 53.85 33.1
L 53.8 33.1
Q 54.2728515625 33.0287109375 54.55 32.8 54.7578125 32.6896484375 54.85 32.45 54.996484375 32.2521484375 55 32
L 55 31
Q 54.996484375 30.5892578125 54.7 30.3 54.4107421875 30.003515625 54 30 53.8935546875 29.979296875 53.65 30.05 53.590234375 30.05 53.55 30.05 53.7560546875 30.0400390625 53.7 29.85
L 50.95 22.15 50.95 22.15
Q 50.563671875 21.1064453125 50.15 20.45 49.6544921875 19.5603515625 48.9 19.2 48.2189453125 18.803515625 47.1 18.8 46.8443359375 18.803515625 46.55 18.85 46.1123046875 18.8490234375 45.65 19 45.3939453125 19.1427734375 45.2 19.4 Z"/>
</g>

<g id="soup_0_Layer0_0_MEMBER_4_MEMBER_3_FILL">
<path fill="#FFC733" stroke="none" d="
M 45.2 19.4
Q 45.0513671875 19.648828125 45.05 19.95
L 45.05 21.05
Q 45.053515625 21.4607421875 45.35 21.75 45.6392578125 22.046484375 46.05 22.05 46.375 22.052734375 46.7 21.95
L 46.65 21.95
Q 46.8 21.947265625 46.95 21.95 47.080078125 21.95 47.15 21.95 47.36484375 22.2509765625 47.55 22.75
L 47.55 22.8 47.85 23.6 44.3 31.65
Q 44.1884765625 31.9666015625 44.25 32.3 44.35625 32.63515625 44.6 32.85 44.903125 33.055859375 45.25 33.05
L 46.7 33.05
Q 46.9986328125 33.04453125 47.25 32.85 47.5025390625 32.7171875 47.6 32.45
L 49.5 28.1 50.65 31.25 50.65 31.2
Q 51.0037109375 32.1958984375 51.45 32.6 51.4744140625 32.6244140625 51.5 32.65 52.0828125 33.1953125 53.1 33.2 53.549609375 33.20234375 53.85 33.1
L 53.8 33.1
Q 54.2728515625 33.0287109375 54.55 32.8 54.7578125 32.6896484375 54.85 32.45 54.996484375 32.2521484375 55 32
L 55 31
Q 54.996484375 30.5892578125 54.7 30.3 54.4107421875 30.003515625 54 30 53.8935546875 29.979296875 53.65 30.05 53.590234375 30.05 53.55 30.05 53.7560546875 30.0400390625 53.7 29.85
L 50.95 22.15 50.95 22.15
Q 50.563671875 21.1064453125 50.15 20.45 49.6544921875 19.5603515625 48.9 19.2 48.2189453125 18.803515625 47.1 18.8 46.8443359375 18.803515625 46.55 18.85 46.1123046875 18.8490234375 45.65 19 45.3939453125 19.1427734375 45.2 19.4 Z"/>
</g>

<g id="soup_0_Layer0_0_MEMBER_4_MEMBER_4_FILL">
<path fill="#FFC733" stroke="none" d="
M 45.2 19.4
Q 45.0513671875 19.648828125 45.05 19.95
L 45.05 21.05
Q 45.053515625 21.4607421875 45.35 21.75 45.6392578125 22.046484375 46.05 22.05 46.375 22.052734375 46.7 21.95
L 46.65 21.95
Q 46.8 21.947265625 46.95 21.95 47.080078125 21.95 47.15 21.95 47.36484375 22.2509765625 47.55 22.75
L 47.55 22.8 47.85 23.6 44.3 31.65
Q 44.1884765625 31.9666015625 44.25 32.3 44.35625 32.63515625 44.6 32.85 44.903125 33.055859375 45.25 33.05
L 46.7 33.05
Q 46.9986328125 33.04453125 47.25 32.85 47.5025390625 32.7171875 47.6 32.45
L 49.5 28.1 50.65 31.25 50.65 31.2
Q 51.0037109375 32.1958984375 51.45 32.6 51.4744140625 32.6244140625 51.5 32.65 52.0828125 33.1953125 53.1 33.2 53.549609375 33.20234375 53.85 33.1
L 53.8 33.1
Q 54.2728515625 33.0287109375 54.55 32.8 54.7578125 32.6896484375 54.85 32.45 54.996484375 32.2521484375 55 32
L 55 31
Q 54.996484375 30.5892578125 54.7 30.3 54.4107421875 30.003515625 54 30 53.8935546875 29.979296875 53.65 30.05 53.590234375 30.05 53.55 30.05 53.7560546875 30.0400390625 53.7 29.85
L 50.95 22.15 50.95 22.15
Q 50.563671875 21.1064453125 50.15 20.45 49.6544921875 19.5603515625 48.9 19.2 48.2189453125 18.803515625 47.1 18.8 46.8443359375 18.803515625 46.55 18.85 46.1123046875 18.8490234375 45.65 19 45.3939453125 19.1427734375 45.2 19.4 Z"/>
</g>

<g id="soup_0_Layer0_0_MEMBER_4_MEMBER_5_FILL">
<path fill="#FFC733" stroke="none" d="
M 45.2 19.4
Q 45.0513671875 19.648828125 45.05 19.95
L 45.05 21.05
Q 45.053515625 21.4607421875 45.35 21.75 45.6392578125 22.046484375 46.05 22.05 46.375 22.052734375 46.7 21.95
L 46.65 21.95
Q 46.8 21.947265625 46.95 21.95 47.080078125 21.95 47.15 21.95 47.36484375 22.2509765625 47.55 22.75
L 47.55 22.8 47.85 23.6 44.3 31.65
Q 44.1884765625 31.9666015625 44.25 32.3 44.35625 32.63515625 44.6 32.85 44.903125 33.055859375 45.25 33.05
L 46.7 33.05
Q 46.9986328125 33.04453125 47.25 32.85 47.5025390625 32.7171875 47.6 32.45
L 49.5 28.1 50.65 31.25 50.65 31.2
Q 51.0037109375 32.1958984375 51.45 32.6 51.4744140625 32.6244140625 51.5 32.65 52.0828125 33.1953125 53.1 33.2 53.549609375 33.20234375 53.85 33.1
L 53.8 33.1
Q 54.2728515625 33.0287109375 54.55 32.8 54.7578125 32.6896484375 54.85 32.45 54.996484375 32.2521484375 55 32
L 55 31
Q 54.996484375 30.5892578125 54.7 30.3 54.4107421875 30.003515625 54 30 53.8935546875 29.979296875 53.65 30.05 53.590234375 30.05 53.55 30.05 53.7560546875 30.0400390625 53.7 29.85
L 50.95 22.15 50.95 22.15
Q 50.563671875 21.1064453125 50.15 20.45 49.6544921875 19.5603515625 48.9 19.2 48.2189453125 18.803515625 47.1 18.8 46.8443359375 18.803515625 46.55 18.85 46.1123046875 18.8490234375 45.65 19 45.3939453125 19.1427734375 45.2 19.4 Z"/>
</g>

<g id="soup_0_Layer0_0_MEMBER_4_MEMBER_6_FILL">
<path fill="#FFC733" stroke="none" d="
M 45.2 19.4
Q 45.0513671875 19.648828125 45.05 19.95
L 45.05 21.05
Q 45.053515625 21.4607421875 45.35 21.75 45.6392578125 22.046484375 46.05 22.05 46.375 22.052734375 46.7 21.95
L 46.65 21.95
Q 46.8 21.947265625 46.95 21.95 47.080078125 21.95 47.15 21.95 47.36484375 22.2509765625 47.55 22.75
L 47.55 22.8 47.85 23.6 44.3 31.65
Q 44.1884765625 31.9666015625 44.25 32.3 44.35625 32.63515625 44.6 32.85 44.903125 33.055859375 45.25 33.05
L 46.7 33.05
Q 46.9986328125 33.04453125 47.25 32.85 47.5025390625 32.7171875 47.6 32.45
L 49.5 28.1 50.65 31.25 50.65 31.2
Q 51.0037109375 32.1958984375 51.45 32.6 51.4744140625 32.6244140625 51.5 32.65 52.0828125 33.1953125 53.1 33.2 53.549609375 33.20234375 53.85 33.1
L 53.8 33.1
Q 54.2728515625 33.0287109375 54.55 32.8 54.7578125 32.6896484375 54.85 32.45 54.996484375 32.2521484375 55 32
L 55 31
Q 54.996484375 30.5892578125 54.7 30.3 54.4107421875 30.003515625 54 30 53.8935546875 29.979296875 53.65 30.05 53.590234375 30.05 53.55 30.05 53.7560546875 30.0400390625 53.7 29.85
L 50.95 22.15 50.95 22.15
Q 50.563671875 21.1064453125 50.15 20.45 49.6544921875 19.5603515625 48.9 19.2 48.2189453125 18.803515625 47.1 18.8 46.8443359375 18.803515625 46.55 18.85 46.1123046875 18.8490234375 45.65 19 45.3939453125 19.1427734375 45.2 19.4 Z"/>
</g>

<g id="soup_0_Layer0_0_MEMBER_4_MEMBER_7_FILL">
<path fill="#FFC733" stroke="none" d="
M 45.2 19.4
Q 45.0513671875 19.648828125 45.05 19.95
L 45.05 21.05
Q 45.053515625 21.4607421875 45.35 21.75 45.6392578125 22.046484375 46.05 22.05 46.375 22.052734375 46.7 21.95
L 46.65 21.95
Q 46.8 21.947265625 46.95 21.95 47.080078125 21.95 47.15 21.95 47.36484375 22.2509765625 47.55 22.75
L 47.55 22.8 47.85 23.6 44.3 31.65
Q 44.1884765625 31.9666015625 44.25 32.3 44.35625 32.63515625 44.6 32.85 44.903125 33.055859375 45.25 33.05
L 46.7 33.05
Q 46.9986328125 33.04453125 47.25 32.85 47.5025390625 32.7171875 47.6 32.45
L 49.5 28.1 50.65 31.25 50.65 31.2
Q 51.0037109375 32.1958984375 51.45 32.6 51.4744140625 32.6244140625 51.5 32.65 52.0828125 33.1953125 53.1 33.2 53.549609375 33.20234375 53.85 33.1
L 53.8 33.1
Q 54.2728515625 33.0287109375 54.55 32.8 54.7578125 32.6896484375 54.85 32.45 54.996484375 32.2521484375 55 32
L 55 31
Q 54.996484375 30.5892578125 54.7 30.3 54.4107421875 30.003515625 54 30 53.8935546875 29.979296875 53.65 30.05 53.590234375 30.05 53.55 30.05 53.7560546875 30.0400390625 53.7 29.85
L 50.95 22.15 50.95 22.15
Q 50.563671875 21.1064453125 50.15 20.45 49.6544921875 19.5603515625 48.9 19.2 48.2189453125 18.803515625 47.1 18.8 46.8443359375 18.803515625 46.55 18.85 46.1123046875 18.8490234375 45.65 19 45.3939453125 19.1427734375 45.2 19.4 Z"/>
</g>

<g id="soup_0_Layer0_0_MEMBER_4_MEMBER_8_FILL">
<path fill="#FFC733" stroke="none" d="
M 45.2 19.4
Q 45.0513671875 19.648828125 45.05 19.95
L 45.05 21.05
Q 45.053515625 21.4607421875 45.35 21.75 45.6392578125 22.046484375 46.05 22.05 46.375 22.052734375 46.7 21.95
L 46.65 21.95
Q 46.8 21.947265625 46.95 21.95 47.080078125 21.95 47.15 21.95 47.36484375 22.2509765625 47.55 22.75
L 47.55 22.8 47.85 23.6 44.3 31.65
Q 44.1884765625 31.9666015625 44.25 32.3 44.35625 32.63515625 44.6 32.85 44.903125 33.055859375 45.25 33.05
L 46.7 33.05
Q 46.9986328125 33.04453125 47.25 32.85 47.5025390625 32.7171875 47.6 32.45
L 49.5 28.1 50.65 31.25 50.65 31.2
Q 51.0037109375 32.1958984375 51.45 32.6 51.4744140625 32.6244140625 51.5 32.65 52.0828125 33.1953125 53.1 33.2 53.549609375 33.20234375 53.85 33.1
L 53.8 33.1
Q 54.2728515625 33.0287109375 54.55 32.8 54.7578125 32.6896484375 54.85 32.45 54.996484375 32.2521484375 55 32
L 55 31
Q 54.996484375 30.5892578125 54.7 30.3 54.4107421875 30.003515625 54 30 53.8935546875 29.979296875 53.65 30.05 53.590234375 30.05 53.55 30.05 53.7560546875 30.0400390625 53.7 29.85
L 50.95 22.15 50.95 22.15
Q 50.563671875 21.1064453125 50.15 20.45 49.6544921875 19.5603515625 48.9 19.2 48.2189453125 18.803515625 47.1 18.8 46.8443359375 18.803515625 46.55 18.85 46.1123046875 18.8490234375 45.65 19 45.3939453125 19.1427734375 45.2 19.4 Z"/>
</g>

<g id="soup_0_Layer0_0_MEMBER_4_MEMBER_9_FILL">
<path fill="#FFC733" stroke="none" d="
M 45.2 19.4
Q 45.0513671875 19.648828125 45.05 19.95
L 45.05 21.05
Q 45.053515625 21.4607421875 45.35 21.75 45.6392578125 22.046484375 46.05 22.05 46.375 22.052734375 46.7 21.95
L 46.65 21.95
Q 46.8 21.947265625 46.95 21.95 47.080078125 21.95 47.15 21.95 47.36484375 22.2509765625 47.55 22.75
L 47.55 22.8 47.85 23.6 44.3 31.65
Q 44.1884765625 31.9666015625 44.25 32.3 44.35625 32.63515625 44.6 32.85 44.903125 33.055859375 45.25 33.05
L 46.7 33.05
Q 46.9986328125 33.04453125 47.25 32.85 47.5025390625 32.7171875 47.6 32.45
L 49.5 28.1 50.65 31.25 50.65 31.2
Q 51.0037109375 32.1958984375 51.45 32.6 51.4744140625 32.6244140625 51.5 32.65 52.0828125 33.1953125 53.1 33.2 53.549609375 33.20234375 53.85 33.1
L 53.8 33.1
Q 54.2728515625 33.0287109375 54.55 32.8 54.7578125 32.6896484375 54.85 32.45 54.996484375 32.2521484375 55 32
L 55 31
Q 54.996484375 30.5892578125 54.7 30.3 54.4107421875 30.003515625 54 30 53.8935546875 29.979296875 53.65 30.05 53.590234375 30.05 53.55 30.05 53.7560546875 30.0400390625 53.7 29.85
L 50.95 22.15 50.95 22.15
Q 50.563671875 21.1064453125 50.15 20.45 49.6544921875 19.5603515625 48.9 19.2 48.2189453125 18.803515625 47.1 18.8 46.8443359375 18.803515625 46.55 18.85 46.1123046875 18.8490234375 45.65 19 45.3939453125 19.1427734375 45.2 19.4 Z"/>
</g>

<g id="soup_0_Layer0_0_MEMBER_4_MEMBER_10_FILL">
<path fill="#FFC733" stroke="none" d="
M 45.2 19.4
Q 45.0513671875 19.648828125 45.05 19.95
L 45.05 21.05
Q 45.053515625 21.4607421875 45.35 21.75 45.6392578125 22.046484375 46.05 22.05 46.375 22.052734375 46.7 21.95
L 46.65 21.95
Q 46.8 21.947265625 46.95 21.95 47.080078125 21.95 47.15 21.95 47.36484375 22.2509765625 47.55 22.75
L 47.55 22.8 47.85 23.6 44.3 31.65
Q 44.1884765625 31.9666015625 44.25 32.3 44.35625 32.63515625 44.6 32.85 44.903125 33.055859375 45.25 33.05
L 46.7 33.05
Q 46.9986328125 33.04453125 47.25 32.85 47.5025390625 32.7171875 47.6 32.45
L 49.5 28.1 50.65 31.25 50.65 31.2
Q 51.0037109375 32.1958984375 51.45 32.6 51.4744140625 32.6244140625 51.5 32.65 52.0828125 33.1953125 53.1 33.2 53.549609375 33.20234375 53.85 33.1
L 53.8 33.1
Q 54.2728515625 33.0287109375 54.55 32.8 54.7578125 32.6896484375 54.85 32.45 54.996484375 32.2521484375 55 32
L 55 31
Q 54.996484375 30.5892578125 54.7 30.3 54.4107421875 30.003515625 54 30 53.8935546875 29.979296875 53.65 30.05 53.590234375 30.05 53.55 30.05 53.7560546875 30.0400390625 53.7 29.85
L 50.95 22.15 50.95 22.15
Q 50.563671875 21.1064453125 50.15 20.45 49.6544921875 19.5603515625 48.9 19.2 48.2189453125 18.803515625 47.1 18.8 46.8443359375 18.803515625 46.55 18.85 46.1123046875 18.8490234375 45.65 19 45.3939453125 19.1427734375 45.2 19.4 Z"/>
</g>

<g id="soup_0_Layer0_0_MEMBER_4_MEMBER_11_FILL">
<path fill="#FFC733" stroke="none" d="
M 45.2 19.4
Q 45.0513671875 19.648828125 45.05 19.95
L 45.05 21.05
Q 45.053515625 21.4607421875 45.35 21.75 45.6392578125 22.046484375 46.05 22.05 46.375 22.052734375 46.7 21.95
L 46.65 21.95
Q 46.8 21.947265625 46.95 21.95 47.080078125 21.95 47.15 21.95 47.36484375 22.2509765625 47.55 22.75
L 47.55 22.8 47.85 23.6 44.3 31.65
Q 44.1884765625 31.9666015625 44.25 32.3 44.35625 32.63515625 44.6 32.85 44.903125 33.055859375 45.25 33.05
L 46.7 33.05
Q 46.9986328125 33.04453125 47.25 32.85 47.5025390625 32.7171875 47.6 32.45
L 49.5 28.1 50.65 31.25 50.65 31.2
Q 51.0037109375 32.1958984375 51.45 32.6 51.4744140625 32.6244140625 51.5 32.65 52.0828125 33.1953125 53.1 33.2 53.549609375 33.20234375 53.85 33.1
L 53.8 33.1
Q 54.2728515625 33.0287109375 54.55 32.8 54.7578125 32.6896484375 54.85 32.45 54.996484375 32.2521484375 55 32
L 55 31
Q 54.996484375 30.5892578125 54.7 30.3 54.4107421875 30.003515625 54 30 53.8935546875 29.979296875 53.65 30.05 53.590234375 30.05 53.55 30.05 53.7560546875 30.0400390625 53.7 29.85
L 50.95 22.15 50.95 22.15
Q 50.563671875 21.1064453125 50.15 20.45 49.6544921875 19.5603515625 48.9 19.2 48.2189453125 18.803515625 47.1 18.8 46.8443359375 18.803515625 46.55 18.85 46.1123046875 18.8490234375 45.65 19 45.3939453125 19.1427734375 45.2 19.4 Z"/>
</g>

<g id="soup_0_Layer0_0_MEMBER_4_MEMBER_12_FILL">
<path fill="#FFC733" stroke="none" d="
M 45.2 19.4
Q 45.0513671875 19.648828125 45.05 19.95
L 45.05 21.05
Q 45.053515625 21.4607421875 45.35 21.75 45.6392578125 22.046484375 46.05 22.05 46.375 22.052734375 46.7 21.95
L 46.65 21.95
Q 46.8 21.947265625 46.95 21.95 47.080078125 21.95 47.15 21.95 47.36484375 22.2509765625 47.55 22.75
L 47.55 22.8 47.85 23.6 44.3 31.65
Q 44.1884765625 31.9666015625 44.25 32.3 44.35625 32.63515625 44.6 32.85 44.903125 33.055859375 45.25 33.05
L 46.7 33.05
Q 46.9986328125 33.04453125 47.25 32.85 47.5025390625 32.7171875 47.6 32.45
L 49.5 28.1 50.65 31.25 50.65 31.2
Q 51.0037109375 32.1958984375 51.45 32.6 51.4744140625 32.6244140625 51.5 32.65 52.0828125 33.1953125 53.1 33.2 53.549609375 33.20234375 53.85 33.1
L 53.8 33.1
Q 54.2728515625 33.0287109375 54.55 32.8 54.7578125 32.6896484375 54.85 32.45 54.996484375 32.2521484375 55 32
L 55 31
Q 54.996484375 30.5892578125 54.7 30.3 54.4107421875 30.003515625 54 30 53.8935546875 29.979296875 53.65 30.05 53.590234375 30.05 53.55 30.05 53.7560546875 30.0400390625 53.7 29.85
L 50.95 22.15 50.95 22.15
Q 50.563671875 21.1064453125 50.15 20.45 49.6544921875 19.5603515625 48.9 19.2 48.2189453125 18.803515625 47.1 18.8 46.8443359375 18.803515625 46.55 18.85 46.1123046875 18.8490234375 45.65 19 45.3939453125 19.1427734375 45.2 19.4 Z"/>
</g>

<g id="soup_0_Layer0_0_MEMBER_4_MEMBER_13_FILL">
<path fill="#FFC733" stroke="none" d="
M 45.2 19.4
Q 45.0513671875 19.648828125 45.05 19.95
L 45.05 21.05
Q 45.053515625 21.4607421875 45.35 21.75 45.6392578125 22.046484375 46.05 22.05 46.375 22.052734375 46.7 21.95
L 46.65 21.95
Q 46.8 21.947265625 46.95 21.95 47.080078125 21.95 47.15 21.95 47.36484375 22.2509765625 47.55 22.75
L 47.55 22.8 47.85 23.6 44.3 31.65
Q 44.1884765625 31.9666015625 44.25 32.3 44.35625 32.63515625 44.6 32.85 44.903125 33.055859375 45.25 33.05
L 46.7 33.05
Q 46.9986328125 33.04453125 47.25 32.85 47.5025390625 32.7171875 47.6 32.45
L 49.5 28.1 50.65 31.25 50.65 31.2
Q 51.0037109375 32.1958984375 51.45 32.6 51.4744140625 32.6244140625 51.5 32.65 52.0828125 33.1953125 53.1 33.2 53.549609375 33.20234375 53.85 33.1
L 53.8 33.1
Q 54.2728515625 33.0287109375 54.55 32.8 54.7578125 32.6896484375 54.85 32.45 54.996484375 32.2521484375 55 32
L 55 31
Q 54.996484375 30.5892578125 54.7 30.3 54.4107421875 30.003515625 54 30 53.8935546875 29.979296875 53.65 30.05 53.590234375 30.05 53.55 30.05 53.7560546875 30.0400390625 53.7 29.85
L 50.95 22.15 50.95 22.15
Q 50.563671875 21.1064453125 50.15 20.45 49.6544921875 19.5603515625 48.9 19.2 48.2189453125 18.803515625 47.1 18.8 46.8443359375 18.803515625 46.55 18.85 46.1123046875 18.8490234375 45.65 19 45.3939453125 19.1427734375 45.2 19.4 Z"/>
</g>

<g id="soup_0_Layer0_0_MEMBER_4_MEMBER_14_FILL">
<path fill="#FFC733" stroke="none" d="
M 45.2 19.4
Q 45.0513671875 19.648828125 45.05 19.95
L 45.05 21.05
Q 45.053515625 21.4607421875 45.35 21.75 45.6392578125 22.046484375 46.05 22.05 46.375 22.052734375 46.7 21.95
L 46.65 21.95
Q 46.8 21.947265625 46.95 21.95 47.080078125 21.95 47.15 21.95 47.36484375 22.2509765625 47.55 22.75
L 47.55 22.8 47.85 23.6 44.3 31.65
Q 44.1884765625 31.9666015625 44.25 32.3 44.35625 32.63515625 44.6 32.85 44.903125 33.055859375 45.25 33.05
L 46.7 33.05
Q 46.9986328125 33.04453125 47.25 32.85 47.5025390625 32.7171875 47.6 32.45
L 49.5 28.1 50.65 31.25 50.65 31.2
Q 51.0037109375 32.1958984375 51.45 32.6 51.4744140625 32.6244140625 51.5 32.65 52.0828125 33.1953125 53.1 33.2 53.549609375 33.20234375 53.85 33.1
L 53.8 33.1
Q 54.2728515625 33.0287109375 54.55 32.8 54.7578125 32.6896484375 54.85 32.45 54.996484375 32.2521484375 55 32
L 55 31
Q 54.996484375 30.5892578125 54.7 30.3 54.4107421875 30.003515625 54 30 53.8935546875 29.979296875 53.65 30.05 53.590234375 30.05 53.55 30.05 53.7560546875 30.0400390625 53.7 29.85
L 50.95 22.15 50.95 22.15
Q 50.563671875 21.1064453125 50.15 20.45 49.6544921875 19.5603515625 48.9 19.2 48.2189453125 18.803515625 47.1 18.8 46.8443359375 18.803515625 46.55 18.85 46.1123046875 18.8490234375 45.65 19 45.3939453125 19.1427734375 45.2 19.4 Z"/>
</g>

<g id="soup_0_Layer0_0_MEMBER_4_MEMBER_15_FILL">
<path fill="#FFC733" stroke="none" d="
M 45.2 19.4
Q 45.0513671875 19.648828125 45.05 19.95
L 45.05 21.05
Q 45.053515625 21.4607421875 45.35 21.75 45.6392578125 22.046484375 46.05 22.05 46.375 22.052734375 46.7 21.95
L 46.65 21.95
Q 46.8 21.947265625 46.95 21.95 47.080078125 21.95 47.15 21.95 47.36484375 22.2509765625 47.55 22.75
L 47.55 22.8 47.85 23.6 44.3 31.65
Q 44.1884765625 31.9666015625 44.25 32.3 44.35625 32.63515625 44.6 32.85 44.903125 33.055859375 45.25 33.05
L 46.7 33.05
Q 46.9986328125 33.04453125 47.25 32.85 47.5025390625 32.7171875 47.6 32.45
L 49.5 28.1 50.65 31.25 50.65 31.2
Q 51.0037109375 32.1958984375 51.45 32.6 51.4744140625 32.6244140625 51.5 32.65 52.0828125 33.1953125 53.1 33.2 53.549609375 33.20234375 53.85 33.1
L 53.8 33.1
Q 54.2728515625 33.0287109375 54.55 32.8 54.7578125 32.6896484375 54.85 32.45 54.996484375 32.2521484375 55 32
L 55 31
Q 54.996484375 30.5892578125 54.7 30.3 54.4107421875 30.003515625 54 30 53.8935546875 29.979296875 53.65 30.05 53.590234375 30.05 53.55 30.05 53.7560546875 30.0400390625 53.7 29.85
L 50.95 22.15 50.95 22.15
Q 50.563671875 21.1064453125 50.15 20.45 49.6544921875 19.5603515625 48.9 19.2 48.2189453125 18.803515625 47.1 18.8 46.8443359375 18.803515625 46.55 18.85 46.1123046875 18.8490234375 45.65 19 45.3939453125 19.1427734375 45.2 19.4 Z"/>
</g>

<g id="soup_0_Layer0_0_MEMBER_4_MEMBER_16_FILL">
<path fill="#FFC733" stroke="none" d="
M 45.2 19.4
Q 45.0513671875 19.648828125 45.05 19.95
L 45.05 21.05
Q 45.053515625 21.4607421875 45.35 21.75 45.6392578125 22.046484375 46.05 22.05 46.375 22.052734375 46.7 21.95
L 46.65 21.95
Q 46.8 21.947265625 46.95 21.95 47.080078125 21.95 47.15 21.95 47.36484375 22.2509765625 47.55 22.75
L 47.55 22.8 47.85 23.6 44.3 31.65
Q 44.1884765625 31.9666015625 44.25 32.3 44.35625 32.63515625 44.6 32.85 44.903125 33.055859375 45.25 33.05
L 46.7 33.05
Q 46.9986328125 33.04453125 47.25 32.85 47.5025390625 32.7171875 47.6 32.45
L 49.5 28.1 50.65 31.25 50.65 31.2
Q 51.0037109375 32.1958984375 51.45 32.6 51.4744140625 32.6244140625 51.5 32.65 52.0828125 33.1953125 53.1 33.2 53.549609375 33.20234375 53.85 33.1
L 53.8 33.1
Q 54.2728515625 33.0287109375 54.55 32.8 54.7578125 32.6896484375 54.85 32.45 54.996484375 32.2521484375 55 32
L 55 31
Q 54.996484375 30.5892578125 54.7 30.3 54.4107421875 30.003515625 54 30 53.8935546875 29.979296875 53.65 30.05 53.590234375 30.05 53.55 30.05 53.7560546875 30.0400390625 53.7 29.85
L 50.95 22.15 50.95 22.15
Q 50.563671875 21.1064453125 50.15 20.45 49.6544921875 19.5603515625 48.9 19.2 48.2189453125 18.803515625 47.1 18.8 46.8443359375 18.803515625 46.55 18.85 46.1123046875 18.8490234375 45.65 19 45.3939453125 19.1427734375 45.2 19.4 Z"/>
</g>

<g id="soup_0_Layer0_0_MEMBER_4_MEMBER_17_FILL">
<path fill="#FFC733" stroke="none" d="
M 45.2 19.4
Q 45.0513671875 19.648828125 45.05 19.95
L 45.05 21.05
Q 45.053515625 21.4607421875 45.35 21.75 45.6392578125 22.046484375 46.05 22.05 46.375 22.052734375 46.7 21.95
L 46.65 21.95
Q 46.8 21.947265625 46.95 21.95 47.080078125 21.95 47.15 21.95 47.36484375 22.2509765625 47.55 22.75
L 47.55 22.8 47.85 23.6 44.3 31.65
Q 44.1884765625 31.9666015625 44.25 32.3 44.35625 32.63515625 44.6 32.85 44.903125 33.055859375 45.25 33.05
L 46.7 33.05
Q 46.9986328125 33.04453125 47.25 32.85 47.5025390625 32.7171875 47.6 32.45
L 49.5 28.1 50.65 31.25 50.65 31.2
Q 51.0037109375 32.1958984375 51.45 32.6 51.4744140625 32.6244140625 51.5 32.65 52.0828125 33.1953125 53.1 33.2 53.549609375 33.20234375 53.85 33.1
L 53.8 33.1
Q 54.2728515625 33.0287109375 54.55 32.8 54.7578125 32.6896484375 54.85 32.45 54.996484375 32.2521484375 55 32
L 55 31
Q 54.996484375 30.5892578125 54.7 30.3 54.4107421875 30.003515625 54 30 53.8935546875 29.979296875 53.65 30.05 53.590234375 30.05 53.55 30.05 53.7560546875 30.0400390625 53.7 29.85
L 50.95 22.15 50.95 22.15
Q 50.563671875 21.1064453125 50.15 20.45 49.6544921875 19.5603515625 48.9 19.2 48.2189453125 18.803515625 47.1 18.8 46.8443359375 18.803515625 46.55 18.85 46.1123046875 18.8490234375 45.65 19 45.3939453125 19.1427734375 45.2 19.4 Z"/>
</g>

<g id="soup_0_Layer0_0_MEMBER_4_MEMBER_18_FILL">
<path fill="#FFC733" stroke="none" d="
M 45.2 19.4
Q 45.0513671875 19.648828125 45.05 19.95
L 45.05 21.05
Q 45.053515625 21.4607421875 45.35 21.75 45.6392578125 22.046484375 46.05 22.05 46.375 22.052734375 46.7 21.95
L 46.65 21.95
Q 46.8 21.947265625 46.95 21.95 47.080078125 21.95 47.15 21.95 47.36484375 22.2509765625 47.55 22.75
L 47.55 22.8 47.85 23.6 44.3 31.65
Q 44.1884765625 31.9666015625 44.25 32.3 44.35625 32.63515625 44.6 32.85 44.903125 33.055859375 45.25 33.05
L 46.7 33.05
Q 46.9986328125 33.04453125 47.25 32.85 47.5025390625 32.7171875 47.6 32.45
L 49.5 28.1 50.65 31.25 50.65 31.2
Q 51.0037109375 32.1958984375 51.45 32.6 51.4744140625 32.6244140625 51.5 32.65 52.0828125 33.1953125 53.1 33.2 53.549609375 33.20234375 53.85 33.1
L 53.8 33.1
Q 54.2728515625 33.0287109375 54.55 32.8 54.7578125 32.6896484375 54.85 32.45 54.996484375 32.2521484375 55 32
L 55 31
Q 54.996484375 30.5892578125 54.7 30.3 54.4107421875 30.003515625 54 30 53.8935546875 29.979296875 53.65 30.05 53.590234375 30.05 53.55 30.05 53.7560546875 30.0400390625 53.7 29.85
L 50.95 22.15 50.95 22.15
Q 50.563671875 21.1064453125 50.15 20.45 49.6544921875 19.5603515625 48.9 19.2 48.2189453125 18.803515625 47.1 18.8 46.8443359375 18.803515625 46.55 18.85 46.1123046875 18.8490234375 45.65 19 45.3939453125 19.1427734375 45.2 19.4 Z"/>
</g>

<g id="soup_0_Layer0_0_MEMBER_4_MEMBER_19_FILL">
<path fill="#FFC733" stroke="none" d="
M 45.2 19.4
Q 45.0513671875 19.648828125 45.05 19.95
L 45.05 21.05
Q 45.053515625 21.4607421875 45.35 21.75 45.6392578125 22.046484375 46.05 22.05 46.375 22.052734375 46.7 21.95
L 46.65 21.95
Q 46.8 21.947265625 46.95 21.95 47.080078125 21.95 47.15 21.95 47.36484375 22.2509765625 47.55 22.75
L 47.55 22.8 47.85 23.6 44.3 31.65
Q 44.1884765625 31.9666015625 44.25 32.3 44.35625 32.63515625 44.6 32.85 44.903125 33.055859375 45.25 33.05
L 46.7 33.05
Q 46.9986328125 33.04453125 47.25 32.85 47.5025390625 32.7171875 47.6 32.45
L 49.5 28.1 50.65 31.25 50.65 31.2
Q 51.0037109375 32.1958984375 51.45 32.6 51.4744140625 32.6244140625 51.5 32.65 52.0828125 33.1953125 53.1 33.2 53.549609375 33.20234375 53.85 33.1
L 53.8 33.1
Q 54.2728515625 33.0287109375 54.55 32.8 54.7578125 32.6896484375 54.85 32.45 54.996484375 32.2521484375 55 32
L 55 31
Q 54.996484375 30.5892578125 54.7 30.3 54.4107421875 30.003515625 54 30 53.8935546875 29.979296875 53.65 30.05 53.590234375 30.05 53.55 30.05 53.7560546875 30.0400390625 53.7 29.85
L 50.95 22.15 50.95 22.15
Q 50.563671875 21.1064453125 50.15 20.45 49.6544921875 19.5603515625 48.9 19.2 48.2189453125 18.803515625 47.1 18.8 46.8443359375 18.803515625 46.55 18.85 46.1123046875 18.8490234375 45.65 19 45.3939453125 19.1427734375 45.2 19.4 Z"/>
</g>

<g id="soup_0_Layer0_0_MEMBER_5_FILL">
<path fill="#196D80" stroke="none" d="
M 14.6 23.6
L 15.15 23.6 15.9 21.85
Q 16 21.6 16.1 21.35 16.2 21.1 16.25 20.9 16.3 21 16.35 21.2 16.4 21.35 16.45 21.55 16.55 21.75 16.55 21.9
L 17.05 23.15
Q 17.15 23.4 17.25 23.55 17.4 23.65 17.6 23.65 17.75 23.65 17.8 23.6 17.9 23.6 17.95 23.55
L 17.95 23.2 17.9 23.2
Q 17.85 23.2 17.8 23.2 17.6 23.2 17.5 22.85
L 16.4 19.9
Q 16.3 19.55 16.15 19.3 16 19.05 15.8 18.95 15.65 18.85 15.3 18.85 15.2 18.85 15.1 18.85 15 18.85 14.9 18.9
L 14.9 19.35
Q 14.95 19.35 15.05 19.3 15.15 19.3 15.25 19.3 15.5 19.3 15.65 19.45 15.75 19.6 15.85 19.85
L 16 20.35 14.6 23.6 Z"/>
</g>

<g id="soup_0_Layer0_0_MEMBER_6_FILL">
<path fill="#196D80" stroke="none" d="
M 14.6 23.6
L 15.15 23.6 15.9 21.85
Q 16 21.6 16.1 21.35 16.2 21.1 16.25 20.9 16.3 21 16.35 21.2 16.4 21.35 16.45 21.55 16.55 21.75 16.55 21.9
L 17.05 23.15
Q 17.15 23.4 17.25 23.55 17.4 23.65 17.6 23.65 17.75 23.65 17.8 23.6 17.9 23.6 17.95 23.55
L 17.95 23.2 17.9 23.2
Q 17.85 23.2 17.8 23.2 17.6 23.2 17.5 22.85
L 16.4 19.9
Q 16.3 19.55 16.15 19.3 16 19.05 15.8 18.95 15.65 18.85 15.3 18.85 15.2 18.85 15.1 18.85 15 18.85 14.9 18.9
L 14.9 19.35
Q 14.95 19.35 15.05 19.3 15.15 19.3 15.25 19.3 15.5 19.3 15.65 19.45 15.75 19.6 15.85 19.85
L 16 20.35 14.6 23.6 Z"/>
</g>
</defs>

<g transform="matrix( 1.1084136962890625, 0, 0, 1.1084136962890625, 18,4.2) ">
<g transform="matrix( 1, 0, 0, 1, -16,-6.1) ">
<use xlink:href="#soup_0_Layer0_0_MEMBER_0_FILL"/>
</g>

<g transform="matrix( 1, 0, 0, 1, -16,-6.1) ">
<use xlink:href="#soup_0_Layer0_0_MEMBER_1_FILL"/>
</g>

<g transform="matrix( 1, 0, 0, 1, -15.95,-10.7) ">
<use xlink:href="#soup_0_Layer0_0_MEMBER_2_FILL"/>
</g>

<g transform="matrix( 1.1593170166015625, 0, 0, 1.1593170166015625, -18.85,-3.25) ">
<use xlink:href="#soup_0_Layer0_0_MEMBER_3_FILL"/>
</g>

<g transform="matrix( 0.1670684814453125, -0.28936767578125, 0.28936767578125, 0.1670684814453125, -12.75,20.05) ">
<use xlink:href="#soup_0_Layer0_0_MEMBER_4_MEMBER_0_FILL"/>
</g>

<g transform="matrix( 0.3227691650390625, -0.0864715576171875, 0.0864715576171875, 0.3227691650390625, -8.65,1.85) ">
<use xlink:href="#soup_0_Layer0_0_MEMBER_4_MEMBER_1_FILL"/>
</g>

<g transform="matrix( 0.289398193359375, 0.1670684814453125, -0.1670684814453125, 0.289398193359375, -7,-11.35) ">
<use xlink:href="#soup_0_Layer0_0_MEMBER_4_MEMBER_2_FILL"/>
</g>

<g transform="matrix( 0.3227691650390625, -0.0864715576171875, 0.0864715576171875, 0.3227691650390625, -18.3,9.45) ">
<use xlink:href="#soup_0_Layer0_0_MEMBER_4_MEMBER_3_FILL"/>
</g>

<g transform="matrix( 0.3227691650390625, 0.0864715576171875, -0.0864715576171875, 0.3227691650390625, -6.95,-0.95) ">
<use xlink:href="#soup_0_Layer0_0_MEMBER_4_MEMBER_4_FILL"/>
</g>

<g transform="matrix( 0.27239990234375, -0.0729827880859375, 0.0729827880859375, 0.27239990234375, -25.85,3.4) ">
<use xlink:href="#soup_0_Layer0_0_MEMBER_4_MEMBER_5_FILL"/>
</g>

<g transform="matrix( 0.3227691650390625, 0.0864715576171875, -0.0864715576171875, 0.3227691650390625, -19.8,-0.1) ">
<use xlink:href="#soup_0_Layer0_0_MEMBER_4_MEMBER_6_FILL"/>
</g>

<g transform="matrix( 0.32275390625, 0.0864715576171875, -0.0864715576171875, 0.32275390625, -16.9,-7.9) ">
<use xlink:href="#soup_0_Layer0_0_MEMBER_4_MEMBER_7_FILL"/>
</g>

<g transform="matrix( 0.2362823486328125, -0.2362518310546875, 0.2362518310546875, 0.2362823486328125, -28.45,16.75) ">
<use xlink:href="#soup_0_Layer0_0_MEMBER_4_MEMBER_8_FILL"/>
</g>

<g transform="matrix( 0.16705322265625, 0.28936767578125, -0.28936767578125, 0.16705322265625, -3.05,-9.35) ">
<use xlink:href="#soup_0_Layer0_0_MEMBER_4_MEMBER_9_FILL"/>
</g>

<g transform="matrix( 0.289398193359375, 0.1670684814453125, -0.1670684814453125, 0.289398193359375, 0.5,-4.95) ">
<use xlink:href="#soup_0_Layer0_0_MEMBER_4_MEMBER_10_FILL"/>
</g>

<g transform="matrix( 0.331329345703125, 0.043426513671875, -0.043426513671875, 0.331329345703125, -9.05,-4.95) ">
<use xlink:href="#soup_0_Layer0_0_MEMBER_4_MEMBER_11_FILL"/>
</g>

<g transform="matrix( 0.08648681640625, 0.3227691650390625, -0.3227691650390625, 0.08648681640625, -2.8,-14) ">
<use xlink:href="#soup_0_Layer0_0_MEMBER_4_MEMBER_12_FILL"/>
</g>

<g transform="matrix( -0.289398193359375, -0.1670684814453125, 0.1670684814453125, -0.289398193359375, 9.45,20.05) ">
<use xlink:href="#soup_0_Layer0_0_MEMBER_4_MEMBER_13_FILL"/>
</g>

<g transform="matrix( 0.27996826171875, 0, 0, 0.27996826171875, -16.85,6.75) ">
<use xlink:href="#soup_0_Layer0_0_MEMBER_4_MEMBER_14_FILL"/>
</g>

<g transform="matrix( 0.264068603515625, -0.07073974609375, 0.07073974609375, 0.264068603515625, -11.45,10.6) ">
<use xlink:href="#soup_0_Layer0_0_MEMBER_4_MEMBER_15_FILL"/>
</g>

<g transform="matrix( 0.217132568359375, 0.05816650390625, -0.05816650390625, 0.217132568359375, -15.8,-0.9) ">
<use xlink:href="#soup_0_Layer0_0_MEMBER_4_MEMBER_16_FILL"/>
</g>

<g transform="matrix( 0.1031036376953125, -0.178619384765625, 0.178619384765625, 0.1031036376953125, -7.5,13.85) ">
<use xlink:href="#soup_0_Layer0_0_MEMBER_4_MEMBER_17_FILL"/>
</g>

<g transform="matrix( 0.2344512939453125, 0.06280517578125, -0.06280517578125, 0.2344512939453125, 3.2,-0.35) ">
<use xlink:href="#soup_0_Layer0_0_MEMBER_4_MEMBER_18_FILL"/>
</g>

<g transform="matrix( 0.166839599609375, 0.0446929931640625, -0.0446929931640625, 0.166839599609375, -20.05,1.1) ">
<use xlink:href="#soup_0_Layer0_0_MEMBER_4_MEMBER_19_FILL"/>
</g>

<g transform="matrix( 0.4428863525390625, -0.2556915283203125, 0, 0.5113983154296875, 4.35,10.6) ">
<use xlink:href="#soup_0_Layer0_0_MEMBER_5_FILL"/>
</g>

<g transform="matrix( 0.4428863525390625, 0.2556915283203125, 0, 0.5113983154296875, -18.8,2.35) ">
<use xlink:href="#soup_0_Layer0_0_MEMBER_6_FILL"/>
</g>
</g>
</svg>
