<svg xmlns="http://www.w3.org/2000/svg" width="16" height="16" viewBox="0 0 16 16"><path fill="#38342a" d="M9 1h1v1h1v1h1v1h1v1h1v1h1v2h-1v1h-2v1h-1v1h-1v1H9v2H8v1H6v-1H5v-1H4v-1H3v-1H2V9h1V8h1V7h1V6h1V5h1V4h1V2h1z"/><path fill="#dbd0b4" d="M4 9V8h1V7h1V6h1l1-1V4h1V2h1v1h1v1h1v1h1v1l-1 1-2 3-3 3-3-3z"/><path fill="#bcb29c" d="M9 3h1v1h1v1h1v1h1v1h-1L9 4zM10 10h1V9h1V7h-1v1h-1zH8v2h1v-1h1zM8 12H7v1h1z"/><path fill="#c6bca5" d="M7 5h1v2h3v1H9V6H7zM6 8h1v2h2V9H6z"/><path fill="#aea694" d="M3 9v1l3 3h1v-1H6v-1H5v-1H4V9z"/><path fill="#9a927e" d="M3 10v1h2v2h2v1H6v-2H4v-2z"/><path fill="#807a6d" d="M13 7h1v1h-1z"/><path fill="#38342a" d="M9 4v1h2v2h1V6h-2V4z"/></svg>
